# xmcd
#
# Track frame offsets: 
#        182
#        18547
#        36285
#        61167
#        91810
#        112040
#        142660
#        163230
#        181757
#
# Disc length: 2833 seconds
#
# Revision: 0
# Processed by: cddbd v1.4PL0 Copyright (c) Steve Scherf et al.
# Submitted via: ExactAudioCopy v0.90b2
#
DISCID=6d0b0f09
DTITLE=Cream - rock and blues
DYEAR=1968
DGENRE=Blues
TTITLE0=NSU
TTITLE1=steppin' out
TTITLE2=traintime
TTITLE3=toad
TTITLE4=I'm so glad
TTITLE5=sleepy time time
TTITLE6=tales of the brave Ulysses
TTITLE7=crossroads
TTITLE8=we're going wrong
EXTD=
EXTT0=
EXTT1=
EXTT2=
EXTT3=
EXTT4=
EXTT5=
EXTT6=
EXTT7=
EXTT8=
PLAYORDER=
